<?xml version="1.0" encoding="UTF-8"?><svg xmlns="http://www.w3.org/2000/svg" xmlns:xlink="http://www.w3.org/1999/xlink" fill-opacity="1" color-rendering="auto" color-interpolation="auto" text-rendering="auto" stroke="black" stroke-linecap="square" width="991" stroke-miterlimit="10" shape-rendering="auto" stroke-opacity="1" fill="black" stroke-dasharray="none" font-weight="normal" stroke-width="1" height="294" font-family="'Dialog'" font-style="normal" stroke-linejoin="miter" font-size="12px" stroke-dashoffset="0" image-rendering="auto">
  <!--Generated by ySVG 2.5-->
  <defs id="genericDefs"/>
  <g>
    <defs id="defs1">
      <linearGradient x1="-7" gradientUnits="userSpaceOnUse" x2="73" y1="192" y2="232" id="linearGradient1" spreadMethod="reflect">
        <stop stop-opacity="1" stop-color="rgb(232,238,247)" offset="0%"/>
        <stop stop-opacity="1" stop-color="rgb(183,201,227)" offset="100%"/>
      </linearGradient>
      <linearGradient x1="213" gradientUnits="userSpaceOnUse" x2="293" y1="262" y2="302" id="linearGradient2" spreadMethod="reflect">
        <stop stop-opacity="1" stop-color="rgb(232,238,247)" offset="0%"/>
        <stop stop-opacity="1" stop-color="rgb(183,201,227)" offset="100%"/>
      </linearGradient>
      <linearGradient x1="323" gradientUnits="userSpaceOnUse" x2="403" y1="192" y2="232" id="linearGradient3" spreadMethod="reflect">
        <stop stop-opacity="1" stop-color="rgb(232,238,247)" offset="0%"/>
        <stop stop-opacity="1" stop-color="rgb(183,201,227)" offset="100%"/>
      </linearGradient>
      <linearGradient x1="323" gradientUnits="userSpaceOnUse" x2="403" y1="332" y2="372" id="linearGradient4" spreadMethod="reflect">
        <stop stop-opacity="1" stop-color="rgb(232,238,247)" offset="0%"/>
        <stop stop-opacity="1" stop-color="rgb(183,201,227)" offset="100%"/>
      </linearGradient>
      <linearGradient x1="446" gradientUnits="userSpaceOnUse" x2="526" y1="192" y2="232" id="linearGradient5" spreadMethod="reflect">
        <stop stop-opacity="1" stop-color="rgb(232,238,247)" offset="0%"/>
        <stop stop-opacity="1" stop-color="rgb(183,201,227)" offset="100%"/>
      </linearGradient>
      <linearGradient x1="446" gradientUnits="userSpaceOnUse" x2="526" y1="332" y2="372" id="linearGradient6" spreadMethod="reflect">
        <stop stop-opacity="1" stop-color="rgb(232,238,247)" offset="0%"/>
        <stop stop-opacity="1" stop-color="rgb(183,201,227)" offset="100%"/>
      </linearGradient>
      <linearGradient x1="569" gradientUnits="userSpaceOnUse" x2="649" y1="262" y2="302" id="linearGradient7" spreadMethod="reflect">
        <stop stop-opacity="1" stop-color="rgb(232,238,247)" offset="0%"/>
        <stop stop-opacity="1" stop-color="rgb(183,201,227)" offset="100%"/>
      </linearGradient>
      <linearGradient x1="704" gradientUnits="userSpaceOnUse" x2="838" y1="249" y2="315" id="linearGradient8" spreadMethod="reflect">
        <stop stop-opacity="1" stop-color="rgb(232,238,247)" offset="0%"/>
        <stop stop-opacity="1" stop-color="rgb(183,201,227)" offset="100%"/>
      </linearGradient>
      <linearGradient x1="103" gradientUnits="userSpaceOnUse" x2="183" y1="262" y2="302" id="linearGradient9" spreadMethod="reflect">
        <stop stop-opacity="1" stop-color="rgb(232,238,247)" offset="0%"/>
        <stop stop-opacity="1" stop-color="rgb(183,201,227)" offset="100%"/>
      </linearGradient>
      <linearGradient x1="-7" gradientUnits="userSpaceOnUse" x2="73" y1="262" y2="302" id="linearGradient10" spreadMethod="reflect">
        <stop stop-opacity="1" stop-color="rgb(232,238,247)" offset="0%"/>
        <stop stop-opacity="1" stop-color="rgb(183,201,227)" offset="100%"/>
      </linearGradient>
      <linearGradient x1="868" gradientUnits="userSpaceOnUse" x2="948" y1="262" y2="302" id="linearGradient11" spreadMethod="reflect">
        <stop stop-opacity="1" stop-color="rgb(232,238,247)" offset="0%"/>
        <stop stop-opacity="1" stop-color="rgb(183,201,227)" offset="100%"/>
      </linearGradient>
      <clipPath clipPathUnits="userSpaceOnUse" id="clipPath1">
        <path d="M0 0 L991 0 L991 294 L0 294 L0 0 Z"/>
      </clipPath>
      <clipPath clipPathUnits="userSpaceOnUse" id="clipPath2">
        <path d="M-25 137 L966 137 L966 431 L-25 431 L-25 137 Z"/>
      </clipPath>
    </defs>
    <g fill="white" text-rendering="geometricPrecision" shape-rendering="geometricPrecision" transform="translate(25,-137)" stroke="white">
      <rect x="-25" width="991" height="294" y="137" clip-path="url(#clipPath2)" stroke="none"/>
    </g>
    <g fill="url(#linearGradient1)" text-rendering="geometricPrecision" shape-rendering="geometricPrecision" transform="matrix(1,0,0,1,25,-137)" stroke="url(#linearGradient1)">
      <circle r="20" clip-path="url(#clipPath2)" cx="33" cy="212" stroke="none"/>
    </g>
    <g text-rendering="geometricPrecision" stroke-miterlimit="1.45" shape-rendering="geometricPrecision" transform="matrix(1,0,0,1,25,-137)" stroke-linecap="butt">
      <circle fill="none" r="20" clip-path="url(#clipPath2)" cx="33" cy="212"/>
      <text x="19.0254" xml:space="preserve" y="216.1543" clip-path="url(#clipPath2)" font-family="sans-serif" stroke="none">start</text>
    </g>
    <g fill="url(#linearGradient2)" text-rendering="geometricPrecision" shape-rendering="geometricPrecision" transform="matrix(1,0,0,1,25,-137)" stroke="url(#linearGradient2)">
      <path d="M253 262 L293 282 L253 302 L213 282 Z" stroke="none" clip-path="url(#clipPath2)"/>
    </g>
    <g text-rendering="geometricPrecision" stroke-miterlimit="1.45" shape-rendering="geometricPrecision" transform="matrix(1,0,0,1,25,-137)" stroke-linecap="butt">
      <path fill="none" d="M253 262 L293 282 L253 302 L213 282 Z" clip-path="url(#clipPath2)"/>
      <text x="219.0449" xml:space="preserve" y="286.1543" clip-path="url(#clipPath2)" font-family="sans-serif" stroke="none">registered?</text>
    </g>
    <g fill="url(#linearGradient3)" text-rendering="geometricPrecision" shape-rendering="geometricPrecision" transform="matrix(1,0,0,1,25,-137)" stroke="url(#linearGradient3)">
      <path d="M323 192 L403 192 L403 232 L323 232 Z" stroke="none" clip-path="url(#clipPath2)"/>
    </g>
    <g text-rendering="geometricPrecision" stroke-miterlimit="1.45" shape-rendering="geometricPrecision" transform="matrix(1,0,0,1,25,-137)" stroke-linecap="butt">
      <path fill="none" d="M323 192 L403 192 L403 232 L323 232 Z" clip-path="url(#clipPath2)"/>
      <text x="348.3838" xml:space="preserve" y="216.1543" clip-path="url(#clipPath2)" font-family="sans-serif" stroke="none">login</text>
    </g>
    <g fill="url(#linearGradient4)" text-rendering="geometricPrecision" shape-rendering="geometricPrecision" transform="matrix(1,0,0,1,25,-137)" stroke="url(#linearGradient4)">
      <path d="M323 332 L403 332 L403 372 L323 372 Z" stroke="none" clip-path="url(#clipPath2)"/>
    </g>
    <g text-rendering="geometricPrecision" stroke-miterlimit="1.45" shape-rendering="geometricPrecision" transform="matrix(1,0,0,1,25,-137)" stroke-linecap="butt">
      <path fill="none" d="M323 332 L403 332 L403 372 L323 372 Z" clip-path="url(#clipPath2)"/>
      <text x="339.7295" xml:space="preserve" y="356.1543" clip-path="url(#clipPath2)" font-family="sans-serif" stroke="none">register</text>
    </g>
    <g fill="url(#linearGradient5)" text-rendering="geometricPrecision" shape-rendering="geometricPrecision" transform="matrix(1,0,0,1,25,-137)" stroke="url(#linearGradient5)">
      <path d="M486 192 L526 212 L486 232 L446 212 Z" stroke="none" clip-path="url(#clipPath2)"/>
    </g>
    <g text-rendering="geometricPrecision" stroke-miterlimit="1.45" shape-rendering="geometricPrecision" transform="matrix(1,0,0,1,25,-137)" stroke-linecap="butt">
      <path fill="none" d="M486 192 L526 212 L486 232 L446 212 Z" clip-path="url(#clipPath2)"/>
      <text x="459.3457" xml:space="preserve" y="216.1543" clip-path="url(#clipPath2)" font-family="sans-serif" stroke="none">success?</text>
    </g>
    <g fill="url(#linearGradient6)" text-rendering="geometricPrecision" shape-rendering="geometricPrecision" transform="matrix(1,0,0,1,25,-137)" stroke="url(#linearGradient6)">
      <path d="M486 332 L526 352 L486 372 L446 352 Z" stroke="none" clip-path="url(#clipPath2)"/>
    </g>
    <g text-rendering="geometricPrecision" stroke-miterlimit="1.45" shape-rendering="geometricPrecision" transform="matrix(1,0,0,1,25,-137)" stroke-linecap="butt">
      <path fill="none" d="M486 332 L526 352 L486 372 L446 352 Z" clip-path="url(#clipPath2)"/>
      <text x="459.3457" xml:space="preserve" y="356.1543" clip-path="url(#clipPath2)" font-family="sans-serif" stroke="none">success?</text>
    </g>
    <g fill="url(#linearGradient7)" text-rendering="geometricPrecision" shape-rendering="geometricPrecision" transform="matrix(1,0,0,1,25,-137)" stroke="url(#linearGradient7)">
      <path d="M569 262 L649 262 L649 302 L569 302 Z" stroke="none" clip-path="url(#clipPath2)"/>
    </g>
    <g text-rendering="geometricPrecision" stroke-miterlimit="1.45" shape-rendering="geometricPrecision" transform="matrix(1,0,0,1,25,-137)" stroke-linecap="butt">
      <path fill="none" d="M569 262 L649 262 L649 302 L569 302 Z" clip-path="url(#clipPath2)"/>
      <text x="576.3428" xml:space="preserve" y="286.1543" clip-path="url(#clipPath2)" font-family="sans-serif" stroke="none">Dashboard</text>
    </g>
    <g fill="url(#linearGradient8)" text-rendering="geometricPrecision" shape-rendering="geometricPrecision" transform="matrix(1,0,0,1,25,-137)" stroke="url(#linearGradient8)">
      <rect x="704" width="134" height="66" y="249" clip-path="url(#clipPath2)" stroke="none"/>
    </g>
    <g text-rendering="geometricPrecision" stroke-miterlimit="1.45" shape-rendering="geometricPrecision" transform="matrix(1,0,0,1,25,-137)" stroke-linecap="butt">
      <rect fill="none" x="704" width="134" height="66" y="249" clip-path="url(#clipPath2)"/>
      <path fill="none" d="M714 249 L714 315 M828 249 L828 315 M714 249 Z" clip-path="url(#clipPath2)"/>
      <text x="753.2783" xml:space="preserve" y="279.1699" clip-path="url(#clipPath2)" font-family="sans-serif" stroke="none">GAME</text>
      <text x="729.7354" xml:space="preserve" y="293.1387" clip-path="url(#clipPath2)" font-family="sans-serif" stroke="none">(Sub-Process)</text>
    </g>
    <g fill="url(#linearGradient9)" text-rendering="geometricPrecision" shape-rendering="geometricPrecision" transform="matrix(1,0,0,1,25,-137)" stroke="url(#linearGradient9)">
      <path d="M103 262 L183 262 L183 302 L103 302 Z" stroke="none" clip-path="url(#clipPath2)"/>
    </g>
    <g text-rendering="geometricPrecision" stroke-miterlimit="1.45" shape-rendering="geometricPrecision" transform="matrix(1,0,0,1,25,-137)" stroke-linecap="butt">
      <path fill="none" d="M103 262 L183 262 L183 302 L103 302 Z" clip-path="url(#clipPath2)"/>
      <text x="112.4609" xml:space="preserve" y="286.1543" clip-path="url(#clipPath2)" font-family="sans-serif" stroke="none">FrontPage</text>
    </g>
    <g fill="url(#linearGradient10)" text-rendering="geometricPrecision" shape-rendering="geometricPrecision" transform="matrix(1,0,0,1,25,-137)" stroke="url(#linearGradient10)">
      <path d="M33 262 L73 282 L33 302 L-7 282 Z" stroke="none" clip-path="url(#clipPath2)"/>
    </g>
    <g text-rendering="geometricPrecision" stroke-miterlimit="1.45" shape-rendering="geometricPrecision" transform="matrix(1,0,0,1,25,-137)" stroke-linecap="butt">
      <path fill="none" d="M33 262 L73 282 L33 302 L-7 282 Z" clip-path="url(#clipPath2)"/>
      <text x="1.9834" xml:space="preserve" y="286.1543" clip-path="url(#clipPath2)" font-family="sans-serif" stroke="none">logged in?</text>
    </g>
    <g fill="url(#linearGradient11)" text-rendering="geometricPrecision" shape-rendering="geometricPrecision" transform="matrix(1,0,0,1,25,-137)" stroke="url(#linearGradient11)">
      <path d="M908 262 L948 282 L908 302 L868 282 Z" stroke="none" clip-path="url(#clipPath2)"/>
    </g>
    <g text-rendering="geometricPrecision" stroke-miterlimit="1.45" shape-rendering="geometricPrecision" transform="matrix(1,0,0,1,25,-137)" stroke-linecap="butt">
      <path fill="none" d="M908 262 L948 282 L908 302 L868 282 Z" clip-path="url(#clipPath2)"/>
      <text x="885.9541" xml:space="preserve" y="286.1543" clip-path="url(#clipPath2)" font-family="sans-serif" stroke="none">replay?</text>
    </g>
    <g text-rendering="geometricPrecision" stroke-miterlimit="1.45" shape-rendering="geometricPrecision" transform="matrix(1,0,0,1,25,-137)" stroke-linecap="butt">
      <path fill="none" d="M253 262.0049 L253 212 L315.0122 212" clip-path="url(#clipPath2)"/>
    </g>
    <g text-rendering="geometricPrecision" stroke-miterlimit="1.45" shape-rendering="geometricPrecision" transform="matrix(1,0,0,1,25,-137)" stroke-linecap="butt">
      <path d="M323.0122 212 L311.0122 207 L314.0122 212 L311.0122 217 Z" stroke="none" clip-path="url(#clipPath2)"/>
      <text x="272.6318" xml:space="preserve" y="234.1621" clip-path="url(#clipPath2)" font-family="sans-serif" stroke="none">yes</text>
      <path fill="none" d="M253 301.9951 L253 352 L315.0122 352" clip-path="url(#clipPath2)"/>
      <path d="M323.0122 352 L311.0122 347 L314.0122 352 L311.0122 357 Z" clip-path="url(#clipPath2)" stroke="none"/>
      <text x="275.5264" xml:space="preserve" y="326.1543" clip-path="url(#clipPath2)" font-family="sans-serif" stroke="none">no</text>
      <path fill="none" d="M363 239.9951 L363 323.9894" clip-path="url(#clipPath2)"/>
      <path d="M363 231.9951 L358 243.9951 L363 240.9951 L368 243.9951 Z" clip-path="url(#clipPath2)" stroke="none"/>
      <path d="M363 331.9894 L368 319.9894 L363 322.9894 L358 319.9894 Z" clip-path="url(#clipPath2)" stroke="none"/>
      <path fill="none" d="M403.0291 212 L438.0135 212" clip-path="url(#clipPath2)"/>
      <path d="M446.0135 212 L434.0135 207 L437.0135 212 L434.0135 217 Z" clip-path="url(#clipPath2)" stroke="none"/>
      <path fill="none" d="M486 192.0049 L486 167 L363 167 L363 184.0049" clip-path="url(#clipPath2)"/>
      <path d="M363 192.0049 L368 180.0049 L363 183.0049 L358 180.0049 Z" clip-path="url(#clipPath2)" stroke="none"/>
      <text x="448.5264" xml:space="preserve" y="183.6543" clip-path="url(#clipPath2)" font-family="sans-serif" stroke="none">no</text>
      <path fill="none" d="M403.0291 352 L438.0135 352" clip-path="url(#clipPath2)"/>
      <path d="M446.0135 352 L434.0135 347 L437.0135 352 L434.0135 357 Z" clip-path="url(#clipPath2)" stroke="none"/>
      <path fill="none" d="M486 372.0044 L486 405 L363 405 L363 380.0044" clip-path="url(#clipPath2)"/>
      <path d="M363 372.0044 L358 384.0044 L363 381.0044 L368 384.0044 Z" clip-path="url(#clipPath2)" stroke="none"/>
      <text x="448.5264" xml:space="preserve" y="399.6465" clip-path="url(#clipPath2)" font-family="sans-serif" stroke="none">no</text>
      <path fill="none" d="M526.0291 212 L609 212 L609 254.0049" clip-path="url(#clipPath2)"/>
      <path d="M609 262.0049 L614 250.0049 L609 253.0049 L604 250.0049 Z" clip-path="url(#clipPath2)" stroke="none"/>
      <text x="533" xml:space="preserve" y="246.1543" clip-path="url(#clipPath2)" font-family="sans-serif" stroke="none">yes</text>
      <path fill="none" d="M526.0291 352 L609 352 L609 309.9951" clip-path="url(#clipPath2)"/>
      <path d="M609 301.9951 L604 313.9951 L609 310.9951 L614 313.9951 Z" clip-path="url(#clipPath2)" stroke="none"/>
      <text x="533" xml:space="preserve" y="326.1543" clip-path="url(#clipPath2)" font-family="sans-serif" stroke="none">yes</text>
      <path fill="none" d="M648.9858 282 L696.0054 282" clip-path="url(#clipPath2)"/>
      <path d="M704.0054 282 L692.0054 277 L695.0054 282 L692.0054 287 Z" clip-path="url(#clipPath2)" stroke="none"/>
      <path fill="none" d="M628 261.9783 L628 152 L143 152 L143 253.9731" clip-path="url(#clipPath2)"/>
      <path d="M143 261.9731 L148 249.9731 L143 252.9731 L138 249.9731 Z" clip-path="url(#clipPath2)" stroke="none"/>
      <text x="639.0273" xml:space="preserve" y="204.1621" clip-path="url(#clipPath2)" font-family="sans-serif" stroke="none">logout</text>
      <path fill="none" d="M182.9878 282 L204.9686 282" clip-path="url(#clipPath2)"/>
      <path d="M212.9686 282 L200.9686 277 L203.9686 282 L200.9686 287 Z" clip-path="url(#clipPath2)" stroke="none"/>
      <path fill="none" d="M33 231.9951 L33 254.0273" clip-path="url(#clipPath2)"/>
      <path d="M33 262.0273 L38 250.0273 L33 253.0273 L28 250.0273 Z" clip-path="url(#clipPath2)" stroke="none"/>
      <path fill="none" d="M72.9878 282 L94.9686 282" clip-path="url(#clipPath2)"/>
      <path d="M102.9686 282 L90.9686 277 L93.9686 282 L90.9686 287 Z" clip-path="url(#clipPath2)" stroke="none"/>
      <text x="80" xml:space="preserve" y="316.1543" clip-path="url(#clipPath2)" font-family="sans-serif" stroke="none">no</text>
      <path fill="none" d="M33 301.9888 L33 416 L588.6427 416 L588.6427 310.0323" clip-path="url(#clipPath2)"/>
      <path d="M588.6427 302.0323 L583.6427 314.0323 L588.6427 311.0323 L593.6427 314.0323 Z" clip-path="url(#clipPath2)" stroke="none"/>
      <text x="-7.3682" xml:space="preserve" y="370.1465" clip-path="url(#clipPath2)" font-family="sans-serif" stroke="none">yes</text>
      <path fill="none" d="M908 262.0312 L908 218 L771 218 L771 240.9688" clip-path="url(#clipPath2)"/>
      <path d="M771 248.9688 L776 236.9688 L771 239.9688 L766 236.9688 Z" clip-path="url(#clipPath2)" stroke="none"/>
      <text x="927.6318" xml:space="preserve" y="237.1621" clip-path="url(#clipPath2)" font-family="sans-serif" stroke="none">yes</text>
      <path fill="none" d="M908 301.9609 L908 362 L625 362 L625 310.0078" clip-path="url(#clipPath2)"/>
      <path d="M625 302.0078 L620 314.0078 L625 311.0078 L630 314.0078 Z" clip-path="url(#clipPath2)" stroke="none"/>
      <text x="870.5264" xml:space="preserve" y="343.1465" clip-path="url(#clipPath2)" font-family="sans-serif" stroke="none">no</text>
    </g>
  </g>
</svg>
