<?xml version="1.0" encoding="UTF-8"?><svg xmlns="http://www.w3.org/2000/svg" xmlns:xlink="http://www.w3.org/1999/xlink" fill-opacity="1" color-rendering="auto" color-interpolation="auto" text-rendering="auto" stroke="black" stroke-linecap="square" width="416" stroke-miterlimit="10" shape-rendering="auto" stroke-opacity="1" fill="black" stroke-dasharray="none" font-weight="normal" stroke-width="1" height="557" font-family="'Dialog'" font-style="normal" stroke-linejoin="miter" font-size="12px" stroke-dashoffset="0" image-rendering="auto">
  <!--Generated by ySVG 2.5-->
  <defs id="genericDefs"/>
  <g>
    <defs id="defs1">
      <linearGradient x1="501.75" gradientUnits="userSpaceOnUse" x2="600.25" y1="98.5" y2="138.5" id="linearGradient1" spreadMethod="reflect">
        <stop stop-opacity="1" stop-color="rgb(232,238,247)" offset="0%"/>
        <stop stop-opacity="1" stop-color="rgb(183,201,227)" offset="100%"/>
      </linearGradient>
      <linearGradient x1="696" gradientUnits="userSpaceOnUse" x2="813" y1="172.5" y2="237.5" id="linearGradient2" spreadMethod="reflect">
        <stop stop-opacity="1" stop-color="rgb(232,238,247)" offset="0%"/>
        <stop stop-opacity="1" stop-color="rgb(183,201,227)" offset="100%"/>
      </linearGradient>
      <linearGradient x1="492.5" gradientUnits="userSpaceOnUse" x2="609.5" y1="185" y2="225" id="linearGradient3" spreadMethod="reflect">
        <stop stop-opacity="1" stop-color="rgb(232,238,247)" offset="0%"/>
        <stop stop-opacity="1" stop-color="rgb(183,201,227)" offset="100%"/>
      </linearGradient>
      <linearGradient x1="492.5" gradientUnits="userSpaceOnUse" x2="609.5" y1="271.5" y2="311.5" id="linearGradient4" spreadMethod="reflect">
        <stop stop-opacity="1" stop-color="rgb(255,204,0)" offset="0%"/>
        <stop stop-opacity="1" stop-color="rgb(255,153,0)" offset="100%"/>
      </linearGradient>
      <linearGradient x1="492.5" gradientUnits="userSpaceOnUse" x2="609.5" y1="358" y2="398" id="linearGradient5" spreadMethod="reflect">
        <stop stop-opacity="1" stop-color="rgb(232,238,247)" offset="0%"/>
        <stop stop-opacity="1" stop-color="rgb(183,201,227)" offset="100%"/>
      </linearGradient>
      <linearGradient x1="511" gradientUnits="userSpaceOnUse" x2="591" y1="444.5" y2="484.5" id="linearGradient6" spreadMethod="reflect">
        <stop stop-opacity="1" stop-color="rgb(232,238,247)" offset="0%"/>
        <stop stop-opacity="1" stop-color="rgb(183,201,227)" offset="100%"/>
      </linearGradient>
      <linearGradient x1="696" gradientUnits="userSpaceOnUse" x2="813" y1="345.5" y2="410.5" id="linearGradient7" spreadMethod="reflect">
        <stop stop-opacity="1" stop-color="rgb(232,238,247)" offset="0%"/>
        <stop stop-opacity="1" stop-color="rgb(183,201,227)" offset="100%"/>
      </linearGradient>
      <linearGradient x1="511" gradientUnits="userSpaceOnUse" x2="591" y1="514.5" y2="554.5" id="linearGradient8" spreadMethod="reflect">
        <stop stop-opacity="1" stop-color="rgb(232,238,247)" offset="0%"/>
        <stop stop-opacity="1" stop-color="rgb(183,201,227)" offset="100%"/>
      </linearGradient>
      <linearGradient x1="511" gradientUnits="userSpaceOnUse" x2="591" y1="28.5" y2="68.5" id="linearGradient9" spreadMethod="reflect">
        <stop stop-opacity="1" stop-color="rgb(232,238,247)" offset="0%"/>
        <stop stop-opacity="1" stop-color="rgb(183,201,227)" offset="100%"/>
      </linearGradient>
      <clipPath clipPathUnits="userSpaceOnUse" id="clipPath1">
        <path d="M0 0 L416 0 L416 557 L0 557 L0 0 Z"/>
      </clipPath>
      <clipPath clipPathUnits="userSpaceOnUse" id="clipPath2">
        <path d="M435 13 L851 13 L851 570 L435 570 L435 13 Z"/>
      </clipPath>
    </defs>
    <g fill="white" text-rendering="geometricPrecision" shape-rendering="geometricPrecision" transform="translate(-435,-13)" stroke="white">
      <rect x="435" width="416" height="557" y="13" clip-path="url(#clipPath2)" stroke="none"/>
    </g>
    <g fill="url(#linearGradient1)" text-rendering="geometricPrecision" shape-rendering="geometricPrecision" transform="matrix(1,0,0,1,-435,-13)" stroke="url(#linearGradient1)">
      <path d="M501.75 98.5 L600.25 98.5 L600.25 138.5 L501.75 138.5 Z" stroke="none" clip-path="url(#clipPath2)"/>
    </g>
    <g text-rendering="geometricPrecision" stroke-miterlimit="1.45" shape-rendering="geometricPrecision" transform="matrix(1,0,0,1,-435,-13)" stroke-linecap="butt">
      <path fill="none" d="M501.75 98.5 L600.25 98.5 L600.25 138.5 L501.75 138.5 Z" clip-path="url(#clipPath2)"/>
      <text x="517.1943" xml:space="preserve" y="122.6543" clip-path="url(#clipPath2)" font-family="sans-serif" stroke="none">Join Games</text>
    </g>
    <g fill="url(#linearGradient2)" text-rendering="geometricPrecision" shape-rendering="geometricPrecision" transform="matrix(1,0,0,1,-435,-13)" stroke="url(#linearGradient2)">
      <path d="M696 185.5 C699.51 172.5 809.49 172.5 813 185.5 L813 224.5 C809.49 237.5 699.51 237.5 696 224.5 Z" stroke="none" clip-path="url(#clipPath2)"/>
    </g>
    <g text-rendering="geometricPrecision" stroke-miterlimit="1.45" shape-rendering="geometricPrecision" transform="matrix(1,0,0,1,-435,-13)" stroke-linecap="butt">
      <path fill="none" d="M696 185.5 C699.51 172.5 809.49 172.5 813 185.5 L813 224.5 C809.49 237.5 699.51 237.5 696 224.5 Z" clip-path="url(#clipPath2)"/>
      <path fill="none" d="M813 185.5 C809.49 198.5 699.51 198.5 696 185.5" clip-path="url(#clipPath2)"/>
      <text x="741.873" xml:space="preserve" y="209.1543" clip-path="url(#clipPath2)" font-family="sans-serif" stroke="none">Pool</text>
    </g>
    <g fill="url(#linearGradient3)" text-rendering="geometricPrecision" shape-rendering="geometricPrecision" transform="matrix(1,0,0,1,-435,-13)" stroke="url(#linearGradient3)">
      <path d="M492.5 185 L609.5 185 L609.5 225 L492.5 225 Z" stroke="none" clip-path="url(#clipPath2)"/>
    </g>
    <g text-rendering="geometricPrecision" stroke-miterlimit="1.45" shape-rendering="geometricPrecision" transform="matrix(1,0,0,1,-435,-13)" stroke-linecap="butt">
      <path fill="none" d="M492.5 185 L609.5 185 L609.5 225 L492.5 225 Z" clip-path="url(#clipPath2)"/>
      <text x="507.6289" xml:space="preserve" y="209.1543" clip-path="url(#clipPath2)" font-family="sans-serif" stroke="none">find partner(s)</text>
    </g>
    <g fill="url(#linearGradient4)" text-rendering="geometricPrecision" shape-rendering="geometricPrecision" transform="matrix(1,0,0,1,-435,-13)" stroke="url(#linearGradient4)">
      <path d="M492.5 271.5 L609.5 271.5 L609.5 311.5 L492.5 311.5 Z" stroke="none" clip-path="url(#clipPath2)"/>
    </g>
    <g text-rendering="geometricPrecision" stroke-miterlimit="1.45" shape-rendering="geometricPrecision" transform="matrix(1,0,0,1,-435,-13)" stroke-linecap="butt">
      <path fill="none" d="M492.5 271.5 L609.5 271.5 L609.5 311.5 L492.5 311.5 Z" clip-path="url(#clipPath2)"/>
      <text x="536.2695" xml:space="preserve" y="295.6543" clip-path="url(#clipPath2)" font-family="sans-serif" stroke="none">PLAY</text>
    </g>
    <g fill="url(#linearGradient5)" text-rendering="geometricPrecision" shape-rendering="geometricPrecision" transform="matrix(1,0,0,1,-435,-13)" stroke="url(#linearGradient5)">
      <path d="M492.5 358 L609.5 358 L609.5 398 L492.5 398 Z" stroke="none" clip-path="url(#clipPath2)"/>
    </g>
    <g text-rendering="geometricPrecision" stroke-miterlimit="1.45" shape-rendering="geometricPrecision" transform="matrix(1,0,0,1,-435,-13)" stroke-linecap="butt">
      <path fill="none" d="M492.5 358 L609.5 358 L609.5 398 L492.5 398 Z" clip-path="url(#clipPath2)"/>
      <text x="513.3184" xml:space="preserve" y="382.1543" clip-path="url(#clipPath2)" font-family="sans-serif" stroke="none">update stats</text>
    </g>
    <g fill="url(#linearGradient6)" text-rendering="geometricPrecision" shape-rendering="geometricPrecision" transform="matrix(1,0,0,1,-435,-13)" stroke="url(#linearGradient6)">
      <path d="M551 444.5 L591 464.5 L551 484.5 L511 464.5 Z" stroke="none" clip-path="url(#clipPath2)"/>
    </g>
    <g text-rendering="geometricPrecision" stroke-miterlimit="1.45" shape-rendering="geometricPrecision" transform="matrix(1,0,0,1,-435,-13)" stroke-linecap="butt">
      <path fill="none" d="M551 444.5 L591 464.5 L551 484.5 L511 464.5 Z" clip-path="url(#clipPath2)"/>
      <text x="531.1836" xml:space="preserve" y="468.6543" clip-path="url(#clipPath2)" font-family="sans-serif" stroke="none">again?</text>
    </g>
    <g fill="url(#linearGradient7)" text-rendering="geometricPrecision" shape-rendering="geometricPrecision" transform="matrix(1,0,0,1,-435,-13)" stroke="url(#linearGradient7)">
      <path d="M696 358.5 C699.51 345.5 809.49 345.5 813 358.5 L813 397.5 C809.49 410.5 699.51 410.5 696 397.5 Z" stroke="none" clip-path="url(#clipPath2)"/>
    </g>
    <g text-rendering="geometricPrecision" stroke-miterlimit="1.45" shape-rendering="geometricPrecision" transform="matrix(1,0,0,1,-435,-13)" stroke-linecap="butt">
      <path fill="none" d="M696 358.5 C699.51 345.5 809.49 345.5 813 358.5 L813 397.5 C809.49 410.5 699.51 410.5 696 397.5 Z" clip-path="url(#clipPath2)"/>
      <path fill="none" d="M813 358.5 C809.49 371.5 699.51 371.5 696 358.5" clip-path="url(#clipPath2)"/>
      <text x="739.1836" xml:space="preserve" y="382.1543" clip-path="url(#clipPath2)" font-family="sans-serif" stroke="none">Stats</text>
    </g>
    <g text-rendering="geometricPrecision" stroke-miterlimit="1.45" shape-rendering="geometricPrecision" transform="matrix(1,0,0,1,-435,-13)" stroke-linecap="butt">
      <path fill="none" d="M693.9375 271.5 L673.75 271.5 L673.75 311.5 L693.9375 311.5" clip-path="url(#clipPath2)"/>
      <text x="681.6416" xml:space="preserve" y="295.6543" clip-path="url(#clipPath2)" font-family="sans-serif" stroke="none">your game content here</text>
    </g>
    <g fill="url(#linearGradient8)" text-rendering="geometricPrecision" shape-rendering="geometricPrecision" transform="matrix(1,0,0,1,-435,-13)" stroke="url(#linearGradient8)">
      <rect x="511" y="514.5" clip-path="url(#clipPath2)" width="80" rx="20" ry="20" height="40" stroke="none"/>
    </g>
    <g text-rendering="geometricPrecision" stroke-miterlimit="1.45" shape-rendering="geometricPrecision" transform="matrix(1,0,0,1,-435,-13)" stroke-linecap="butt">
      <rect x="511" y="514.5" clip-path="url(#clipPath2)" fill="none" width="80" rx="20" ry="20" height="40"/>
      <text x="539.6973" xml:space="preserve" y="538.6543" clip-path="url(#clipPath2)" font-family="sans-serif" stroke="none">end</text>
    </g>
    <g fill="url(#linearGradient9)" text-rendering="geometricPrecision" shape-rendering="geometricPrecision" transform="matrix(1,0,0,1,-435,-13)" stroke="url(#linearGradient9)">
      <circle r="20" clip-path="url(#clipPath2)" cx="551" cy="48.5" stroke="none"/>
    </g>
    <g text-rendering="geometricPrecision" stroke-miterlimit="1.45" shape-rendering="geometricPrecision" transform="matrix(1,0,0,1,-435,-13)" stroke-linecap="butt">
      <circle fill="none" r="20" clip-path="url(#clipPath2)" cx="551" cy="48.5"/>
      <text x="537.0254" xml:space="preserve" y="52.6543" clip-path="url(#clipPath2)" font-family="sans-serif" stroke="none">start</text>
    </g>
    <g text-rendering="geometricPrecision" stroke-miterlimit="1.45" stroke-dasharray="6,2" shape-rendering="geometricPrecision" transform="matrix(1,0,0,1,-435,-13)" stroke-linecap="butt">
      <path fill="none" d="M600.2355 118.5 L754.5 118.5 L754.5 167.7302" clip-path="url(#clipPath2)"/>
    </g>
    <g text-rendering="geometricPrecision" stroke-miterlimit="1.45" stroke-dasharray="6,2" shape-rendering="geometricPrecision" transform="matrix(1,0,0,1,-435,-13)" stroke-linecap="butt">
      <path d="M754.5 175.7302 L759.5 163.7302 L754.5 166.7302 L749.5 163.7302 Z" stroke="none" clip-path="url(#clipPath2)"/>
      <text x="663.7656" y="92.6543" clip-path="url(#clipPath2)" font-family="sans-serif" stroke-dasharray="none" stroke="none" xml:space="preserve">add user to</text>
      <path fill="none" stroke-dasharray="none" d="M551 138.4778 L551 177.0238" clip-path="url(#clipPath2)"/>
      <path stroke-dasharray="none" d="M551 185.0238 L556 173.0238 L551 176.0238 L546 173.0238 Z" clip-path="url(#clipPath2)" stroke="none"/>
      <path fill="none" d="M696.0236 205 L617.5264 205" clip-path="url(#clipPath2)"/>
      <path d="M609.5264 205 L621.5264 210 L618.5264 205 L621.5264 200 Z" clip-path="url(#clipPath2)" stroke="none"/>
      <text x="625.8027" y="179.1543" clip-path="url(#clipPath2)" font-family="sans-serif" stroke-dasharray="none" stroke="none" xml:space="preserve">pull from</text>
      <path fill="none" stroke-dasharray="none" d="M551 224.9778 L551 263.5238" clip-path="url(#clipPath2)"/>
      <path stroke-dasharray="none" d="M551 271.5238 L556 259.5238 L551 262.5238 L546 259.5238 Z" clip-path="url(#clipPath2)" stroke="none"/>
      <path fill="none" stroke-dasharray="none" d="M551 311.4778 L551 350.0238" clip-path="url(#clipPath2)"/>
      <path stroke-dasharray="none" d="M551 358.0238 L556 346.0238 L551 349.0238 L546 346.0238 Z" clip-path="url(#clipPath2)" stroke="none"/>
      <text x="502.124" y="338.9043" clip-path="url(#clipPath2)" font-family="sans-serif" stroke-dasharray="none" stroke="none" xml:space="preserve">onEnd</text>
      <path fill="none" stroke-dasharray="none" d="M551 397.9778 L551 436.5238" clip-path="url(#clipPath2)"/>
      <path stroke-dasharray="none" d="M551 444.5238 L556 432.5238 L551 435.5238 L546 432.5238 Z" clip-path="url(#clipPath2)" stroke="none"/>
      <path fill="none" stroke-dasharray="none" d="M511.0044 464.5 L450 464.5 L450 118.5 L493.7368 118.5" clip-path="url(#clipPath2)"/>
      <path stroke-dasharray="none" d="M501.7368 118.5 L489.7368 113.5 L492.7368 118.5 L489.7368 123.5 Z" clip-path="url(#clipPath2)" stroke="none"/>
      <text x="461.4478" y="438.6543" clip-path="url(#clipPath2)" font-family="sans-serif" stroke-dasharray="none" stroke="none" xml:space="preserve">yes</text>
      <path fill="none" d="M609.4764 378 L687.9736 378" clip-path="url(#clipPath2)"/>
      <path d="M695.9736 378 L683.9736 373 L686.9736 378 L683.9736 383 Z" clip-path="url(#clipPath2)" stroke="none"/>
      <path fill="none" stroke-dasharray="none" d="M673.7657 291.5 L609.4756 291.5" clip-path="url(#clipPath2)"/>
      <path fill="none" stroke-dasharray="none" d="M551 484.4951 L551 506.5273" clip-path="url(#clipPath2)"/>
      <path stroke-dasharray="none" d="M551 514.5273 L556 502.5273 L551 505.5273 L546 502.5273 Z" clip-path="url(#clipPath2)" stroke="none"/>
      <path fill="none" stroke-dasharray="none" d="M551 68.4951 L551 90.5273" clip-path="url(#clipPath2)"/>
      <path stroke-dasharray="none" d="M551 98.5273 L556 86.5273 L551 89.5273 L546 86.5273 Z" clip-path="url(#clipPath2)" stroke="none"/>
    </g>
  </g>
</svg>
