<?xml version="1.0" encoding="UTF-8"?><svg xmlns="http://www.w3.org/2000/svg" xmlns:xlink="http://www.w3.org/1999/xlink" fill-opacity="1" color-rendering="auto" color-interpolation="auto" text-rendering="auto" stroke="black" stroke-linecap="square" width="825" stroke-miterlimit="10" shape-rendering="auto" stroke-opacity="1" fill="black" stroke-dasharray="none" font-weight="normal" stroke-width="1" height="170" font-family="'Dialog'" font-style="normal" stroke-linejoin="miter" font-size="12px" stroke-dashoffset="0" image-rendering="auto">
  <!--Generated by ySVG 2.5-->
  <defs id="genericDefs"/>
  <g>
    <defs id="defs1">
      <linearGradient x1="467.75" gradientUnits="userSpaceOnUse" x2="566.25" y1="98.5" y2="138.5" id="linearGradient1" spreadMethod="reflect">
        <stop stop-opacity="1" stop-color="rgb(232,238,247)" offset="0%"/>
        <stop stop-opacity="1" stop-color="rgb(183,201,227)" offset="100%"/>
      </linearGradient>
      <linearGradient x1="556.75" gradientUnits="userSpaceOnUse" x2="673.75" y1="172.5" y2="237.5" id="linearGradient2" spreadMethod="reflect">
        <stop stop-opacity="1" stop-color="rgb(232,238,247)" offset="0%"/>
        <stop stop-opacity="1" stop-color="rgb(183,201,227)" offset="100%"/>
      </linearGradient>
      <linearGradient x1="630.25" gradientUnits="userSpaceOnUse" x2="747.25" y1="98.5" y2="138.5" id="linearGradient3" spreadMethod="reflect">
        <stop stop-opacity="1" stop-color="rgb(232,238,247)" offset="0%"/>
        <stop stop-opacity="1" stop-color="rgb(183,201,227)" offset="100%"/>
      </linearGradient>
      <linearGradient x1="777.25" gradientUnits="userSpaceOnUse" x2="894.25" y1="98.5" y2="138.5" id="linearGradient4" spreadMethod="reflect">
        <stop stop-opacity="1" stop-color="rgb(255,204,0)" offset="0%"/>
        <stop stop-opacity="1" stop-color="rgb(255,153,0)" offset="100%"/>
      </linearGradient>
      <linearGradient x1="924.25" gradientUnits="userSpaceOnUse" x2="1041.25" y1="98.5" y2="138.5" id="linearGradient5" spreadMethod="reflect">
        <stop stop-opacity="1" stop-color="rgb(232,238,247)" offset="0%"/>
        <stop stop-opacity="1" stop-color="rgb(183,201,227)" offset="100%"/>
      </linearGradient>
      <linearGradient x1="924.25" gradientUnits="userSpaceOnUse" x2="1041.25" y1="172.5" y2="237.5" id="linearGradient6" spreadMethod="reflect">
        <stop stop-opacity="1" stop-color="rgb(232,238,247)" offset="0%"/>
        <stop stop-opacity="1" stop-color="rgb(183,201,227)" offset="100%"/>
      </linearGradient>
      <linearGradient x1="1071.25" gradientUnits="userSpaceOnUse" x2="1151.25" y1="98.5" y2="138.5" id="linearGradient7" spreadMethod="reflect">
        <stop stop-opacity="1" stop-color="rgb(232,238,247)" offset="0%"/>
        <stop stop-opacity="1" stop-color="rgb(183,201,227)" offset="100%"/>
      </linearGradient>
      <linearGradient x1="357.75" gradientUnits="userSpaceOnUse" x2="437.75" y1="98.5" y2="138.5" id="linearGradient8" spreadMethod="reflect">
        <stop stop-opacity="1" stop-color="rgb(232,238,247)" offset="0%"/>
        <stop stop-opacity="1" stop-color="rgb(183,201,227)" offset="100%"/>
      </linearGradient>
      <clipPath clipPathUnits="userSpaceOnUse" id="clipPath1">
        <path d="M0 0 L825 0 L825 170 L0 170 L0 0 Z"/>
      </clipPath>
      <clipPath clipPathUnits="userSpaceOnUse" id="clipPath2">
        <path d="M342 83 L1167 83 L1167 253 L342 253 L342 83 Z"/>
      </clipPath>
    </defs>
    <g fill="white" text-rendering="geometricPrecision" shape-rendering="geometricPrecision" transform="translate(-342,-83)" stroke="white">
      <rect x="342" width="825" height="170" y="83" clip-path="url(#clipPath2)" stroke="none"/>
    </g>
    <g fill="url(#linearGradient1)" text-rendering="geometricPrecision" shape-rendering="geometricPrecision" transform="matrix(1,0,0,1,-342,-83)" stroke="url(#linearGradient1)">
      <path d="M467.75 98.5 L566.25 98.5 L566.25 138.5 L467.75 138.5 Z" stroke="none" clip-path="url(#clipPath2)"/>
    </g>
    <g text-rendering="geometricPrecision" stroke-miterlimit="1.45" shape-rendering="geometricPrecision" transform="matrix(1,0,0,1,-342,-83)" stroke-linecap="butt">
      <path fill="none" d="M467.75 98.5 L566.25 98.5 L566.25 138.5 L467.75 138.5 Z" clip-path="url(#clipPath2)"/>
      <text x="486.3203" xml:space="preserve" y="122.6543" clip-path="url(#clipPath2)" font-family="sans-serif" stroke="none">Join Game</text>
    </g>
    <g fill="url(#linearGradient2)" text-rendering="geometricPrecision" shape-rendering="geometricPrecision" transform="matrix(1,0,0,1,-342,-83)" stroke="url(#linearGradient2)">
      <path d="M556.75 185.5 C560.26 172.5 670.24 172.5 673.75 185.5 L673.75 224.5 C670.24 237.5 560.26 237.5 556.75 224.5 Z" stroke="none" clip-path="url(#clipPath2)"/>
    </g>
    <g text-rendering="geometricPrecision" stroke-miterlimit="1.45" shape-rendering="geometricPrecision" transform="matrix(1,0,0,1,-342,-83)" stroke-linecap="butt">
      <path fill="none" d="M556.75 185.5 C560.26 172.5 670.24 172.5 673.75 185.5 L673.75 224.5 C670.24 237.5 560.26 237.5 556.75 224.5 Z" clip-path="url(#clipPath2)"/>
      <path fill="none" d="M673.75 185.5 C670.24 198.5 560.26 198.5 556.75 185.5" clip-path="url(#clipPath2)"/>
      <text x="602.623" xml:space="preserve" y="209.1543" clip-path="url(#clipPath2)" font-family="sans-serif" stroke="none">Pool</text>
    </g>
    <g fill="url(#linearGradient3)" text-rendering="geometricPrecision" shape-rendering="geometricPrecision" transform="matrix(1,0,0,1,-342,-83)" stroke="url(#linearGradient3)">
      <path d="M630.25 98.5 L747.25 98.5 L747.25 138.5 L630.25 138.5 Z" stroke="none" clip-path="url(#clipPath2)"/>
    </g>
    <g text-rendering="geometricPrecision" stroke-miterlimit="1.45" shape-rendering="geometricPrecision" transform="matrix(1,0,0,1,-342,-83)" stroke-linecap="butt">
      <path fill="none" d="M630.25 98.5 L747.25 98.5 L747.25 138.5 L630.25 138.5 Z" clip-path="url(#clipPath2)"/>
      <text x="645.3789" xml:space="preserve" y="122.6543" clip-path="url(#clipPath2)" font-family="sans-serif" stroke="none">find partner(s)</text>
    </g>
    <g fill="url(#linearGradient4)" text-rendering="geometricPrecision" shape-rendering="geometricPrecision" transform="matrix(1,0,0,1,-342,-83)" stroke="url(#linearGradient4)">
      <path d="M777.25 98.5 L894.25 98.5 L894.25 138.5 L777.25 138.5 Z" stroke="none" clip-path="url(#clipPath2)"/>
    </g>
    <g text-rendering="geometricPrecision" stroke-miterlimit="1.45" shape-rendering="geometricPrecision" transform="matrix(1,0,0,1,-342,-83)" stroke-linecap="butt">
      <path fill="none" d="M777.25 98.5 L894.25 98.5 L894.25 138.5 L777.25 138.5 Z" clip-path="url(#clipPath2)"/>
      <text x="821.0195" xml:space="preserve" y="122.6543" clip-path="url(#clipPath2)" font-family="sans-serif" stroke="none">PLAY</text>
    </g>
    <g fill="url(#linearGradient5)" text-rendering="geometricPrecision" shape-rendering="geometricPrecision" transform="matrix(1,0,0,1,-342,-83)" stroke="url(#linearGradient5)">
      <path d="M924.25 98.5 L1041.25 98.5 L1041.25 138.5 L924.25 138.5 Z" stroke="none" clip-path="url(#clipPath2)"/>
    </g>
    <g text-rendering="geometricPrecision" stroke-miterlimit="1.45" shape-rendering="geometricPrecision" transform="matrix(1,0,0,1,-342,-83)" stroke-linecap="butt">
      <path fill="none" d="M924.25 98.5 L1041.25 98.5 L1041.25 138.5 L924.25 138.5 Z" clip-path="url(#clipPath2)"/>
      <text x="945.0684" xml:space="preserve" y="122.6543" clip-path="url(#clipPath2)" font-family="sans-serif" stroke="none">update stats</text>
    </g>
    <g fill="url(#linearGradient6)" text-rendering="geometricPrecision" shape-rendering="geometricPrecision" transform="matrix(1,0,0,1,-342,-83)" stroke="url(#linearGradient6)">
      <path d="M924.25 185.5 C927.76 172.5 1037.74 172.5 1041.25 185.5 L1041.25 224.5 C1037.74 237.5 927.76 237.5 924.25 224.5 Z" stroke="none" clip-path="url(#clipPath2)"/>
    </g>
    <g text-rendering="geometricPrecision" stroke-miterlimit="1.45" shape-rendering="geometricPrecision" transform="matrix(1,0,0,1,-342,-83)" stroke-linecap="butt">
      <path fill="none" d="M924.25 185.5 C927.76 172.5 1037.74 172.5 1041.25 185.5 L1041.25 224.5 C1037.74 237.5 927.76 237.5 924.25 224.5 Z" clip-path="url(#clipPath2)"/>
      <path fill="none" d="M1041.25 185.5 C1037.74 198.5 927.76 198.5 924.25 185.5" clip-path="url(#clipPath2)"/>
      <text x="967.4336" xml:space="preserve" y="209.1543" clip-path="url(#clipPath2)" font-family="sans-serif" stroke="none">Stats</text>
    </g>
    <g text-rendering="geometricPrecision" stroke-miterlimit="1.45" shape-rendering="geometricPrecision" transform="matrix(1,0,0,1,-342,-83)" stroke-linecap="butt">
      <path fill="none" d="M771.6875 190 L771.6875 185 L899.8125 185 L899.8125 190" clip-path="url(#clipPath2)"/>
      <text x="778.4512" xml:space="preserve" y="202.1699" clip-path="url(#clipPath2)" font-family="sans-serif" stroke="none">your game content</text>
      <text x="800.5586" xml:space="preserve" y="216.1387" clip-path="url(#clipPath2)" font-family="sans-serif" stroke="none">comes here</text>
    </g>
    <g fill="url(#linearGradient7)" text-rendering="geometricPrecision" shape-rendering="geometricPrecision" transform="matrix(1,0,0,1,-342,-83)" stroke="url(#linearGradient7)">
      <rect x="1071.25" y="98.5" clip-path="url(#clipPath2)" width="80" rx="20" ry="20" height="40" stroke="none"/>
    </g>
    <g text-rendering="geometricPrecision" stroke-miterlimit="1.45" shape-rendering="geometricPrecision" transform="matrix(1,0,0,1,-342,-83)" stroke-linecap="butt">
      <rect x="1071.25" y="98.5" clip-path="url(#clipPath2)" fill="none" width="80" rx="20" ry="20" height="40"/>
      <text x="1099.9473" xml:space="preserve" y="122.6543" clip-path="url(#clipPath2)" font-family="sans-serif" stroke="none">end</text>
    </g>
    <g fill="url(#linearGradient8)" text-rendering="geometricPrecision" shape-rendering="geometricPrecision" transform="matrix(1,0,0,1,-342,-83)" stroke="url(#linearGradient8)">
      <circle r="20" clip-path="url(#clipPath2)" cx="397.75" cy="118.5" stroke="none"/>
    </g>
    <g text-rendering="geometricPrecision" stroke-miterlimit="1.45" shape-rendering="geometricPrecision" transform="matrix(1,0,0,1,-342,-83)" stroke-linecap="butt">
      <circle fill="none" r="20" clip-path="url(#clipPath2)" cx="397.75" cy="118.5"/>
      <text x="383.7754" xml:space="preserve" y="122.6543" clip-path="url(#clipPath2)" font-family="sans-serif" stroke="none">start</text>
    </g>
    <g text-rendering="geometricPrecision" stroke-miterlimit="1.45" stroke-dasharray="6,2" shape-rendering="geometricPrecision" transform="matrix(1,0,0,1,-342,-83)" stroke-linecap="butt">
      <path fill="none" d="M517 138.4778 L517 205 L548.7701 205" clip-path="url(#clipPath2)"/>
    </g>
    <g text-rendering="geometricPrecision" stroke-miterlimit="1.45" stroke-dasharray="6,2" shape-rendering="geometricPrecision" transform="matrix(1,0,0,1,-342,-83)" stroke-linecap="butt">
      <path d="M556.7701 205 L544.7701 200 L547.7701 205 L544.7701 210 Z" stroke="none" clip-path="url(#clipPath2)"/>
      <text x="527.7754" y="156.6387" clip-path="url(#clipPath2)" font-family="sans-serif" stroke-dasharray="none" stroke="none" xml:space="preserve">add to</text>
      <path fill="none" stroke-dasharray="none" d="M566.2691 118.5 L622.2307 118.5" clip-path="url(#clipPath2)"/>
      <path stroke-dasharray="none" d="M630.2307 118.5 L618.2307 113.5 L621.2307 118.5 L618.2307 123.5 Z" clip-path="url(#clipPath2)" stroke="none"/>
      <path fill="none" d="M673.7844 205 L688.75 205 L688.75 146.4778" clip-path="url(#clipPath2)"/>
      <path d="M688.75 138.4778 L683.75 150.4778 L688.75 147.4778 L693.75 150.4778 Z" clip-path="url(#clipPath2)" stroke="none"/>
      <text x="692.6177" y="175.3809" clip-path="url(#clipPath2)" font-family="sans-serif" stroke-dasharray="none" stroke="none" xml:space="preserve">pull from</text>
      <path fill="none" stroke-dasharray="none" d="M747.2844 118.5 L769.2193 118.5" clip-path="url(#clipPath2)"/>
      <path stroke-dasharray="none" d="M777.2193 118.5 L765.2193 113.5 L768.2193 118.5 L765.2193 123.5 Z" clip-path="url(#clipPath2)" stroke="none"/>
      <path fill="none" stroke-dasharray="none" d="M894.2844 118.5 L916.2193 118.5" clip-path="url(#clipPath2)"/>
      <path stroke-dasharray="none" d="M924.2193 118.5 L912.2193 113.5 L915.2193 118.5 L912.2193 123.5 Z" clip-path="url(#clipPath2)" stroke="none"/>
      <text x="890.874" y="152.6543" clip-path="url(#clipPath2)" font-family="sans-serif" stroke-dasharray="none" stroke="none" xml:space="preserve">onEnd</text>
      <path fill="none" d="M982.75 138.4778 L982.75 167.7341" clip-path="url(#clipPath2)"/>
      <path d="M982.75 175.7341 L987.75 163.7341 L982.75 166.7341 L977.75 163.7341 Z" clip-path="url(#clipPath2)" stroke="none"/>
      <path fill="none" stroke-dasharray="none" d="M835.75 185.0222 L835.75 138.4762" clip-path="url(#clipPath2)"/>
      <path fill="none" stroke-dasharray="none" d="M1041.2589 118.5 L1063.2307 118.5" clip-path="url(#clipPath2)"/>
      <path stroke-dasharray="none" d="M1071.2307 118.5 L1059.2307 113.5 L1062.2307 118.5 L1059.2307 123.5 Z" clip-path="url(#clipPath2)" stroke="none"/>
      <path fill="none" stroke-dasharray="none" d="M417.7512 118.5 L459.7148 118.5" clip-path="url(#clipPath2)"/>
      <path stroke-dasharray="none" d="M467.7148 118.5 L455.7148 113.5 L458.7148 118.5 L455.7148 123.5 Z" clip-path="url(#clipPath2)" stroke="none"/>
    </g>
  </g>
</svg>
